# xmcd CD database file
#
# Track frame offsets:
#	150
#	12167
#	26287
#	42165
#	52855
#	63790
#	76757
#	91612
#	103767
#	125475
#	135232
#	152640
#	165840
#	178195
#	192852
#
# Disc length: 2799 seconds
#
# Revision: 1
# Processed by: cddbd v1.5.1PL0 Copyright (c) Steve Scherf et al.
# Submitted via: CDex 1.51
#
DISCID=a00aed0f
DTITLE=Tom Astor - Die Tom Astor Story CD 2
DYEAR=1900
DGENRE=Country
TTITLE0=Hallo, guten Morgen Deutschland
TTITLE1=International Airport
TTITLE2=Schreib mir mal aus Mexico
TTITLE3=Irgendwo
TTITLE4=Ja, das sind Stunden
TTITLE5=Nutz die Zeit 
TTITLE6=Sonntagmorgen
TTITLE7=Trucker sind Partner
TTITLE8=Kameraden der Straﬂe
TTITLE9=Sicht weg - Gas weg
TTITLE10=Mein Freund Charly
TTITLE11=Partner fahr rechts
TTITLE12=Jeden Montag freu'n wir uns auf's Wochenend
TTITLE13=Und nachts, wenn alles schlief
TTITLE14=Lucille
EXTD=
EXTT0=
EXTT1=(Frankfurt am Main)
EXTT2=
EXTT3=im Duett mit Rattlesnake Annie
EXTT4=(die vergiﬂt man nie)
EXTT5=(Alter Junge, nutz die Zeit)
EXTT6=
EXTT7=
EXTT8=
EXTT9=
EXTT10=
EXTT11=
EXTT12=
EXTT13=
EXTT14=
PLAYORDER=
